<?xml version="1.0" standalone="no"?>
<!DOCTYPE svg PUBLIC "-//W3C//DTD SVG 1.1//EN" "http://www.w3.org/Graphics/SVG/1.1/DTD/svg11.dtd" >
<svg xmlns="http://www.w3.org/2000/svg" xmlns:svg="http://www.w3.org/2000/svg" xmlns:xlink="http://www.w3.org/1999/xlink" viewBox="0 0 1024 1024"><path d="M361.24 49.38Q361.67 59.86 360.04 51.3Q402.32 24.23 386.92 54.33Q399.61 64.44 401.58 94.01V118.89H626.11V80.92Q635.03 65.33 644.79 54.94Q670.35 35.94 663.5 59.55Q699.16 40.64 714 52.48Q725.12 58.22 690.08 104.02V101.2Q808.9 120.44 873.34 137.74Q922.11 125.63 927.62 125.83Q927.59 141.7 917.95 186.93Q896.55 181.9 906.43 185.29Q840.29 199.38 817.82 213.18Q752.43 200.25 711.46 191.77Q725.99 253.42 691.25 283.87Q731.08 310.41 687.83 301.16Q690.99 302.92 704.31 318.91H513.21Q462.67 340.26 363.99 299.11Q352.66 315.02 367.09 281.34Q354.67 240.03 350 178.79L140.9 182.63Q139.31 194.95 121.47 185.38Q108.02 145.13 132.36 131.44Q120.05 110.79 124.21 109.81Q190.43 124.5 327.82 100.71V97.18Q335.57 69.13 362.64 32.5ZM636.26 209.15H396.49Q415.01 222.51 426.37 232.34H614.27ZM88.8 331.38Q74.08 330.25 104.16 324.46Q336.43 341.21 947.76 358.11Q955.09 351.85 945.62 343.59Q983.12 364.05 977.32 397.57Q950.45 403.75 963.33 408.15H557V443.83Q621.23 468.99 690.67 440.93Q741.62 435.48 825.92 456.15Q807.41 475.64 843.52 447.5Q823.11 489.38 863.68 505.06Q832.98 620.86 827.23 733.7Q815.53 728.28 813.72 750.09Q837.48 776.31 802.73 781.68Q658.59 809.16 528.79 772.39Q412.82 783.25 255.95 768.08Q207.65 791.74 199.83 717.91Q210 682.97 203.43 660.34Q187.56 615.35 193.41 549.49Q192.34 527.14 211.86 491.37Q185.83 490.67 240.55 470.41Q278.42 467.62 344.09 462.88H495.65V428.86Q401.47 409.33 293.53 425.92Q193.76 403.75 79.66 404.08Q51.96 407.66 81.59 359.87ZM758.52 534.84Q713.5 511.76 655.14 511.24Q583.12 525.27 552.76 544.19V589.9Q596.05 574.71 668.08 589.78Q710.25 569.01 746.05 586.48ZM484.22 537.16H264.08V608.55Q340.23 572.1 499.4 595.47ZM753.99 645.39Q737.05 664.69 696.57 640.04Q647.12 642.49 572.91 666.45L555.5 702.31Q602.57 701.84 651.21 707.33Q704.85 726.32 776.97 704.03ZM490.92 663.68Q430.64 645.76 293.8 664.44L303.73 704.13H477.63ZM289.67 844.03Q310.95 800.37 332.55 810.58Q357.31 858.09 365.39 890.02Q329.19 891.06 291.34 907.93Q285.1 967.17 256.48 955.56Q186.16 974.14 190.79 933.68Q192.63 915.74 239.39 880.11Q265.17 862.24 275.66 848.89ZM722.34 824.55Q738.87 790.85 778.27 831.51Q805.9 854.67 831.29 851.55Q865.82 899.61 871.63 912.37Q887.68 929.85 889.44 933.97Q895.26 993.9 816.79 979.54Q806.91 939.11 792.79 922.23Q766.42 900.97 714.14 898.28Q671.55 875.72 684.96 830.33Z" fill="black"></path></svg>