<?xml version="1.0" standalone="no"?>
<!DOCTYPE svg PUBLIC "-//W3C//DTD SVG 1.1//EN" "http://www.w3.org/Graphics/SVG/1.1/DTD/svg11.dtd" >
<svg xmlns="http://www.w3.org/2000/svg" xmlns:svg="http://www.w3.org/2000/svg" xmlns:xlink="http://www.w3.org/1999/xlink" viewBox="0 0 1024 1024"><path d="M347.0 52.0Q357.0 40.0 373.0 40.0Q390.0 40.0 400.0 52.0Q416.0 68.0 412.0 91.0V117.0H633.0V91.0Q628.0 68.0 645.0 52.0Q655.0 40.0 670.0 40.0Q687.0 40.0 697.0 52.0Q714.0 68.0 709.0 91.0V117.0Q828.0 118.0 878.0 120.0Q904.0 118.0 923.0 133.0Q944.0 160.0 922.0 185.0Q916.0 191.0 910.0 197.0Q860.0 195.0 809.5 194.0Q759.0 193.0 709.0 192.0Q708.0 249.0 709.0 276.0Q714.0 296.0 698.0 309.0Q691.0 315.0 686.0 321.0H531.0Q448.0 325.0 367.0 313.0Q356.0 303.0 351.0 290.0Q339.0 250.0 335.0 189.0L142.0 185.0Q137.0 179.0 131.0 173.0Q104.0 146.0 131.0 120.0Q137.0 113.0 143.0 108.0Q191.0 108.0 335.0 110.0V87.0Q332.0 66.0 347.0 52.0ZM633.0 193.0H412.0Q412.0 217.0 416.0 245.0H633.0ZM70.0 344.0Q82.0 328.0 100.0 336.0Q317.0 340.0 955.0 343.0Q959.0 348.0 964.0 354.0Q985.0 381.0 961.0 405.0Q956.0 412.0 950.0 417.0H556.0V454.0Q620.0 453.0 684.5 452.0Q749.0 451.0 814.0 449.0Q820.0 456.0 827.0 463.0Q838.0 474.0 844.0 488.0Q844.0 612.0 833.0 736.0Q829.0 748.0 826.0 760.0Q822.0 772.0 812.0 780.0Q678.0 793.0 539.5 790.0Q401.0 787.0 261.0 783.0Q213.0 777.0 217.0 726.0Q215.0 695.0 208.0 654.5Q201.0 614.0 203.0 563.0Q204.0 536.0 203.5 505.5Q203.0 475.0 231.0 461.0Q297.0 449.0 364.0 453.0H480.0V418.0Q387.0 417.0 290.0 416.5Q193.0 416.0 92.0 410.0Q39.0 391.0 70.0 344.0ZM770.0 526.0Q701.0 528.0 652.0 528.5Q603.0 529.0 560.0 529.0V584.0Q610.0 584.0 661.5 583.5Q713.0 583.0 764.0 580.0ZM483.0 529.0H279.0V590.0Q360.0 590.0 483.0 585.0ZM763.0 658.0Q722.0 658.0 677.0 658.5Q632.0 659.0 568.0 662.0L575.0 709.0Q621.0 711.0 667.5 712.5Q714.0 714.0 760.0 715.0ZM492.0 663.0Q419.0 660.0 283.0 663.0L291.0 710.0H497.0ZM289.0 834.0Q318.0 804.0 347.0 830.0Q368.0 850.0 355.0 875.0Q328.0 902.0 300.0 927.0Q275.0 961.0 237.0 974.0Q203.0 971.0 199.0 937.0Q206.0 905.0 234.0 885.0Q260.0 858.0 289.0 834.0ZM704.0 830.0Q736.0 810.0 767.5 831.0Q799.0 852.0 832.0 871.5Q865.0 891.0 875.0 903.0Q889.0 915.0 889.0 933.0Q877.0 984.0 829.0 963.0Q819.0 957.0 785.5 933.5Q752.0 910.0 717.0 893.0Q677.0 869.0 704.0 830.0Z" fill="black"></path></svg>